<svg width="40" height="40" viewBox="0 0 40 40" fill="none" xmlns="http://www.w3.org/2000/svg">
<path d="M5.2022 2.84509C4.55133 2.19422 3.49605 2.19422 2.84518 2.84509C2.1943 3.49596 2.1943 4.55124 2.84518 5.20211L7.59222 9.94915C6.73016 10.6815 5.94615 11.4428 5.24244 12.1934C3.59472 13.951 2.33678 15.7021 1.49056 17.0124C1.06642 17.6692 0.742987 18.2194 0.523286 18.6099C0.413372 18.8053 0.329233 18.9611 0.271256 19.0707C0.242261 19.1255 0.219792 19.1687 0.203897 19.1997L0.184983 19.2367L0.179232 19.2481L0.177283 19.252L0.176542 19.2534C0.176235 19.254 0.175955 19.2546 1.66667 20L0.175955 19.2546C-0.0586516 19.7238 -0.0586516 20.2761 0.175955 20.7453L1.66667 20C0.175955 20.7453 0.176235 20.7459 0.176542 20.7465L0.177283 20.748L0.179232 20.7518L0.184983 20.7632L0.203897 20.8003C0.219792 20.8312 0.242261 20.8744 0.271256 20.9292C0.329233 21.0388 0.413372 21.1946 0.523286 21.39C0.742987 21.7806 1.06642 22.3308 1.49056 22.9875C2.33678 24.2978 3.59472 26.049 5.24244 27.8065C8.50747 31.2892 13.5008 35 20 35C23.7472 35 26.9939 33.7664 29.6973 32.0542L35.4882 37.8451C36.139 38.496 37.1943 38.496 37.8452 37.8451C38.496 37.1942 38.496 36.1389 37.8452 35.4881L32.4078 30.0507C32.4078 30.0507 32.4079 30.0507 32.4079 30.0507L30.0426 27.6853C30.0425 27.6854 30.0425 27.6854 30.0425 27.6854L25.3607 23.0036C25.3607 23.0035 25.3607 23.0035 25.3606 23.0034L24.0565 21.6993C24.0565 21.6993 24.0564 21.6993 24.0564 21.6993L12.7294 10.3723C12.7295 10.3723 12.7295 10.3723 12.7295 10.3723L10.3029 7.94563C10.3028 7.94565 10.3028 7.94566 10.3028 7.94567L5.2022 2.84509ZM9.95755 12.3145L14.2566 16.6136C13.6705 17.606 13.3333 18.7643 13.3333 20C13.3333 23.6819 16.3181 26.6666 20 26.6666C21.236 26.6666 22.3941 26.3294 23.3864 25.7433L27.2706 29.6276C25.1381 30.8565 22.7053 31.6666 20 31.6666C14.8325 31.6666 10.6592 28.7107 7.67423 25.5267C6.19694 23.951 5.05906 22.3688 4.29069 21.1791C3.99154 20.7159 3.75005 20.3147 3.5679 20C3.75005 19.6852 3.99154 19.284 4.29069 18.8208C5.05906 17.6311 6.19694 16.049 7.67423 14.4732C8.37134 13.7296 9.13328 12.9985 9.95755 12.3145ZM16.7793 19.1362L20.8637 23.2206C20.5883 23.2942 20.2988 23.3333 20 23.3333C18.159 23.3333 16.6667 21.8409 16.6667 20C16.6667 19.701 16.7058 19.4116 16.7793 19.1362ZM35.7093 21.1791C34.9639 22.3333 33.8706 23.8569 32.457 25.3858L34.8157 27.7444C36.4349 26.0078 37.6732 24.2823 38.5094 22.9875C38.9336 22.3308 39.257 21.7806 39.4767 21.39C39.5866 21.1946 39.6708 21.0388 39.7287 20.9292C39.7577 20.8744 39.7802 20.8312 39.7961 20.8003L39.815 20.7632L39.8208 20.7518L39.8227 20.748L39.8235 20.7465C39.8238 20.7459 39.824 20.7453 38.3333 20L39.824 20.7453C40.0587 20.2761 40.0587 19.7238 39.824 19.2546L38.3333 20C39.824 19.2546 39.8238 19.254 39.8235 19.2534L39.8227 19.252L39.8208 19.2481L39.815 19.2367L39.7961 19.1997C39.7802 19.1687 39.7577 19.1255 39.7287 19.0707C39.6708 18.9611 39.5866 18.8053 39.4767 18.6099C39.257 18.2194 38.9336 17.6692 38.5094 17.0124C37.6632 15.7021 36.4053 13.951 34.7576 12.1934C31.4925 8.71069 26.4992 4.99996 20 4.99996C17.5896 4.99996 15.3863 5.51037 13.4015 6.33026L16.0062 8.93498C17.2613 8.55218 18.5938 8.33329 20 8.33329C25.1675 8.33329 29.3408 11.2892 32.3258 14.4732C33.8031 16.049 34.9409 17.6311 35.7093 18.8208C36.0085 19.284 36.2499 19.6852 36.4321 20C36.2499 20.3147 36.0085 20.7159 35.7093 21.1791Z" fill="#155DA4"/>
</svg>
