<svg width="40" height="40" viewBox="0 0 40 40" fill="none" xmlns="http://www.w3.org/2000/svg">
<path d="M4.29069 21.1791C5.05906 22.3689 6.19694 23.951 7.67423 25.5268C10.6592 28.7107 14.8325 31.6667 20 31.6667C25.1675 31.6667 29.3408 28.7107 32.3258 25.5268C33.8031 23.951 34.9409 22.3689 35.7093 21.1791C36.0085 20.7159 36.2499 20.3148 36.4321 20C36.2499 19.6852 36.0085 19.2841 35.7093 18.8209C34.9409 17.6311 33.8031 16.049 32.3258 14.4732C29.3408 11.2893 25.1675 8.33333 20 8.33333C14.8325 8.33333 10.6592 11.2893 7.67423 14.4732C6.19694 16.049 5.05906 17.6311 4.29069 18.8209C3.99154 19.2841 3.75005 19.6852 3.5679 20C3.75005 20.3148 3.99154 20.7159 4.29069 21.1791ZM39.8235 19.2535C39.8238 19.2541 39.824 19.2546 38.3333 20C39.824 20.7454 39.8238 20.7459 39.8235 20.7465L39.8227 20.748L39.8208 20.7519L39.815 20.7633L39.7961 20.8003C39.7802 20.8312 39.7577 20.8745 39.7287 20.9293C39.6708 21.0388 39.5866 21.1946 39.4767 21.39C39.257 21.7806 38.9336 22.3308 38.5094 22.9875C37.6632 24.2978 36.4053 26.049 34.7576 27.8066C31.4925 31.2893 26.4992 35 20 35C13.5008 35 8.50747 31.2893 5.24244 27.8066C3.59472 26.049 2.33678 24.2978 1.49056 22.9875C1.06642 22.3308 0.742986 21.7806 0.523286 21.39C0.413372 21.1946 0.329233 21.0388 0.271256 20.9293C0.242261 20.8745 0.219792 20.8312 0.203897 20.8003L0.184983 20.7633L0.179232 20.7519L0.177283 20.748L0.176542 20.7465C0.176235 20.7459 0.175955 20.7454 1.66667 20C0.175955 19.2546 0.176235 19.2541 0.176542 19.2535L0.177283 19.252L0.179232 19.2481L0.184983 19.2367L0.203897 19.1997C0.219792 19.1688 0.242261 19.1255 0.271256 19.0707C0.329233 18.9612 0.413372 18.8054 0.523286 18.61C0.742986 18.2194 1.06642 17.6692 1.49056 17.0125C2.33678 15.7022 3.59472 13.951 5.24244 12.1934C8.50747 8.71073 13.5008 5 20 5C26.4992 5 31.4925 8.71073 34.7576 12.1934C36.4053 13.951 37.6632 15.7022 38.5094 17.0125C38.9336 17.6692 39.257 18.2194 39.4767 18.61C39.5866 18.8054 39.6708 18.9612 39.7287 19.0707C39.7577 19.1255 39.7802 19.1688 39.7961 19.1997L39.815 19.2367L39.8208 19.2481L39.8227 19.252L39.8235 19.2535ZM38.3333 20L39.824 19.2546C40.0587 19.7239 40.0587 20.2761 39.824 20.7454L38.3333 20ZM0.175955 19.2546L1.66667 20L0.175955 20.7454C-0.0586516 20.2761 -0.0586516 19.7239 0.175955 19.2546ZM16.6667 20C16.6667 18.1591 18.1591 16.6667 20 16.6667C21.8409 16.6667 23.3333 18.1591 23.3333 20C23.3333 21.8409 21.8409 23.3333 20 23.3333C18.1591 23.3333 16.6667 21.8409 16.6667 20ZM20 13.3333C16.3181 13.3333 13.3333 16.3181 13.3333 20C13.3333 23.6819 16.3181 26.6667 20 26.6667C23.6819 26.6667 26.6667 23.6819 26.6667 20C26.6667 16.3181 23.6819 13.3333 20 13.3333Z" fill="#155DA4"/>
</svg>
