<svg width="39" height="39" viewBox="0 0 39 39" fill="none" xmlns="http://www.w3.org/2000/svg">
<path d="M35.4471 38.7511L22.1121 25.4138C16.18 29.6312 8.00582 28.5996 3.3075 23.0406C-1.39081 17.4817 -1.04583 9.24984 4.10113 4.10347C9.24674 -1.04515 17.4794 -1.39163 23.0394 3.30644C28.5994 8.00451 29.6316 16.1795 25.4138 22.1121L38.7488 35.4495L35.4495 38.7488L35.4471 38.7511ZM13.9991 4.6681C9.57444 4.66711 5.75708 7.77305 4.85824 12.1055C3.9594 16.4379 6.22613 20.8061 10.286 22.5654C14.346 24.3246 19.0832 22.9914 21.6297 19.3729C24.1762 15.7544 23.832 10.8452 20.8055 7.61747L22.2171 9.01747L20.6258 7.4308L20.5978 7.4028C18.852 5.64621 16.4757 4.66143 13.9991 4.6681Z" fill="#155DA4"/>
</svg>
