<svg width="44" height="32" viewBox="0 0 44 32" fill="none" xmlns="http://www.w3.org/2000/svg">
<path d="M21.7011 1.48392C13.9287 5.1209 10.2104 9.46793 8.11295 13.3599C8.06751 13.5055 8.1583 13.6967 8.2582 13.5966C10.4964 12.3584 12.5938 11.7348 14.024 11.7348C17.4108 11.7166 20.4299 14.7254 20.4616 19.2774C20.4616 24.0068 18.1917 27.8805 13.8832 30.0336C12.2921 30.8133 10.551 31.2373 8.78032 31.2762C2.62865 31.2716 0 26.8745 0 22.045C0 11.9078 9.82907 3.25462 21.179 0.00454666C21.4151 0.0955872 21.8918 1.29274 21.7011 1.48392ZM6.72826 16.5462C6.0684 18.3705 5.72894 20.2956 5.7249 22.2361C5.7249 27.0157 7.49093 29.2915 10.1151 29.2915C12.9752 29.2915 14.9819 25.2949 14.9819 21.0982C14.9365 16.7464 13.2204 14.689 10.3602 14.689C9.40381 14.7188 8.46897 14.9813 7.63627 15.4538C7.23706 15.7288 6.92248 16.1104 6.72826 16.5553V16.5462ZM43.5021 1.48392C35.7251 5.11635 32.0023 9.46793 29.9048 13.3599C29.8594 13.501 29.9502 13.6921 30.0501 13.5966C32.2883 12.3539 34.3857 11.7303 35.8158 11.7303C39.2026 11.712 42.2218 14.7254 42.2535 19.2774C42.2535 24.0113 39.9835 27.885 35.6751 30.0381C34.0836 30.8163 32.3425 31.2388 30.5722 31.2762C24.4205 31.2671 21.7919 26.87 21.7919 22.045C21.7919 11.9033 31.6209 3.25006 42.9708 0C43.2115 0.0955872 43.6881 1.29274 43.4975 1.48392H43.5021ZM28.5246 16.5462C27.8624 18.3698 27.5228 20.2954 27.5213 22.2361C27.5213 27.0157 29.2874 29.2915 31.9069 29.2915C34.7671 29.2915 36.7738 25.2949 36.7738 21.0982C36.7239 16.7511 35.0077 14.6936 32.1476 14.6936C31.1912 14.7234 30.2563 14.9858 29.4235 15.4583C29.0229 15.7317 28.708 16.1138 28.5155 16.5598L28.5246 16.5462Z" fill="#155DA4"/>
</svg>
